<svg width="26" height="14" viewBox="0 0 26 14" fill="none" xmlns="http://www.w3.org/2000/svg">
<path d="M0.6475 0.719999H11.9275V3.06H7.6075V14H4.9875V3.06H0.6475V0.719999ZM25.0945 4.8C25.0945 5.98667 24.7012 6.96667 23.9145 7.74C23.1412 8.51333 22.0012 8.9 20.4945 8.9H16.5545V14H13.9345V0.719999H20.4945C22.0012 0.719999 23.1412 1.10667 23.9145 1.88C24.7012 2.65333 25.0945 3.62667 25.0945 4.8ZM16.5545 3.06V6.56H20.3145C20.9812 6.56 21.5079 6.4 21.8945 6.08C22.2812 5.76 22.4745 5.33333 22.4745 4.8C22.4745 4.26667 22.2812 3.84667 21.8945 3.54C21.5212 3.22 20.9945 3.06 20.3145 3.06H16.5545Z" fill="white"/>
</svg>
